<?xml version="1.0" encoding="UTF-8"?>
<svg id="Layer_2" data-name="Layer 2" xmlns="http://www.w3.org/2000/svg" xmlns:xlink="http://www.w3.org/1999/xlink" viewBox="0 0 220.18 220.18">
  <defs>
    <style>
      .cls-1 {
        fill: url(#linear-gradient);
        stroke-width: 0px;
      }

      .cls-2 {
        stroke: #000;
        stroke-miterlimit: 10;
        stroke-width: .18px;
      }
    </style>
    <linearGradient id="linear-gradient" x1="68.29" y1="303.85" x2="259.8" y2="303.85" gradientTransform="translate(-112.99 385.54) rotate(10.84) scale(1 -1)" gradientUnits="userSpaceOnUse">
      <stop offset="0" stop-color="#e4ff2c"/>
      <stop offset=".33" stop-color="#9dff6e" stop-opacity=".96"/>
      <stop offset="1" stop-color="aqua" stop-opacity=".89"/>
    </linearGradient>
  </defs>
  <g id="Layer_1-2" data-name="Layer 1">
    <g>
      <rect class="cls-2" x=".09" y=".09" width="220" height="220"/>
      <path class="cls-1" d="m191.18,161.11l-74.31-.24c.05.32.04.64-.02.96-.37,2.56-3.13,4.36-6.19,4.02l-.12-.02.62,26.13c.04,1.73-1.65,3.15-3.78,3.12l-74.36-.24c-2.19-.01-3.99-1.45-4.02-3.22l-.64-27.32c-.04-1.78,1.7-3.21,3.89-3.19l73.63.23c-.15-.52-.19-1.06-.1-1.62.37-2.6,3.18-4.42,6.25-4.07.3.03.57.09.85.15l-.59-25.69c-1.09.33-2.32.35-3.54-.09-1.96-.71-3.22-2.53-3.05-4.39.06-.67.27-1.27.61-1.8h-.11l-74.39-.23c-2.12-.01-3.85-1.4-3.89-3.12l-.62-26.42c-.04-1.72,1.63-3.1,3.75-3.1l73.93.25c-.02-.32-.01-.64.04-.95.37-2.56,3.15-4.36,6.19-4.02.07.01.15.01.21.03l-.56-24.16c-1.08.52-2.34.71-3.63.49-2.77-.47-4.67-2.7-4.48-5.13l-72.53-1.41c-2.11-.04-3.86-1.39-3.94-3.02l-1.18-25.07c-.09-1.63,1.57-2.92,3.67-2.87l72.91,1.41c2.11.04,3.88,1.4,3.95,3.02l1.1,23.55c.8-.22,1.7-.25,2.58-.11,2.38.41,4.09,2.08,4.43,4.09.27-.05.56-.09.85-.08l74.76.24c2.12,0,3.85,1.4,3.89,3.11l.62,26.42c.04,1.72-1.63,3.1-3.76,3.1l-73.77-.24c.15.52.19,1.07.1,1.63-.37,2.59-3.17,4.42-6.25,4.07-.26-.03-.52-.08-.77-.14l.61,25.89c0,.33-.04.66-.15.94.56-.09,1.14-.09,1.73.01,2.7.46,4.45,2.75,3.95,5.13.19-.02.37-.03.57-.04l74.31.24c2.19.02,3.99,1.45,4.02,3.22l.64,27.31c0,1.82-1.73,3.25-3.91,3.24Z"/>
    </g>
  </g>
</svg>